<?xml version="1.0" encoding="UTF-8"?>
<svg width="800px" height="600px" viewBox="0 0 800 600" version="1.1" xmlns="http://www.w3.org/2000/svg">
    <title>Banking Illustration</title>
    <g stroke="none" stroke-width="1" fill="none" fill-rule="evenodd">
        <!-- Bank Building -->
        <rect fill="#0D6EFD" x="200" y="200" width="400" height="300" rx="8"/>
        <rect fill="#FFFFFF" x="250" y="150" width="300" height="350"/>
        
        <!-- Columns -->
        <rect fill="#0D6EFD" x="280" y="170" width="40" height="330"/>
        <rect fill="#0D6EFD" x="380" y="170" width="40" height="330"/>
        <rect fill="#0D6EFD" x="480" y="170" width="40" height="330"/>
        
        <!-- Steps -->
        <rect fill="#0D6EFD" x="250" y="500" width="300" height="20"/>
        <rect fill="#0D6EFD" x="270" y="520" width="260" height="20"/>
        <rect fill="#0D6EFD" x="290" y="540" width="220" height="20"/>
        
        <!-- Roof -->
        <path d="M400,100 L550,150 L250,150 Z" fill="#0D6EFD"/>
        
        <!-- Door -->
        <rect fill="#0D6EFD" x="350" y="400" width="100" height="120" rx="4"/>
        
        <!-- Windows -->
        <rect fill="#0D6EFD" x="300" y="200" width="60" height="80" rx="4"/>
        <rect fill="#0D6EFD" x="440" y="200" width="60" height="80" rx="4"/>
        <rect fill="#0D6EFD" x="300" y="300" width="60" height="80" rx="4"/>
        <rect fill="#0D6EFD" x="440" y="300" width="60" height="80" rx="4"/>
    </g>
</svg>
